<?xml version="1.0" standalone="no"?>
<!DOCTYPE svg PUBLIC "-//W3C//DTD SVG 20010904//EN"
 "http://www.w3.org/TR/2001/REC-SVG-20010904/DTD/svg10.dtd">
<svg version="1.0" xmlns="http://www.w3.org/2000/svg"
 width="250.000000pt" height="279.000000pt" viewBox="0 0 250.000000 279.000000"
 preserveAspectRatio="xMidYMid meet">
<metadata>
Created by potrace 1.10, written by Peter Selinger 2001-2011
</metadata>
<g transform="translate(0.000000,279.000000) scale(0.100000,-0.100000)"
fill="#000000" stroke="none">
<path d="M521 2367 c-37 -17 -48 -30 -77 -91 -19 -39 -34 -78 -34 -88 0 -10
-6 -18 -14 -18 -19 0 -46 44 -53 86 -3 19 -9 34 -13 34 -14 0 -20 -30 -20 -96
0 -61 2 -66 38 -102 31 -31 36 -42 28 -56 -9 -14 -6 -21 10 -35 16 -13 19 -22
12 -34 -7 -13 -24 -17 -80 -17 l-72 0 28 -29 c39 -40 81 -57 101 -41 13 10 15
9 15 -8 0 -16 7 -21 32 -24 25 -2 34 -9 38 -27 3 -13 14 -27 24 -31 16 -5 11
-14 -38 -64 -53 -55 -56 -60 -41 -76 15 -17 20 -17 50 -4 18 7 54 18 80 24 40
9 49 8 59 -6 17 -23 68 -15 81 14 11 25 32 28 59 7 25 -19 50 -19 66 0 7 8 26
15 42 15 16 0 31 -6 34 -15 7 -17 34 -21 34 -4 0 5 5 7 12 3 7 -4 8 -3 4 5 -4
6 -2 20 6 29 12 15 11 16 -4 3 -16 -12 -18 -10 -18 20 1 28 2 31 11 17 5 -10
17 -18 25 -18 11 0 14 -7 10 -22 l-6 -23 11 23 c7 12 16 22 21 22 5 0 4 -9 -2
-21 -11 -19 -10 -20 9 -10 17 10 20 9 15 -4 -4 -8 -1 -15 5 -15 14 0 14 23 1
36 -14 14 4 36 23 28 13 -5 15 -15 12 -45 -3 -23 -1 -39 5 -39 5 0 10 15 10
33 0 28 3 33 24 32 13 0 28 -3 32 -7 11 -12 42 -10 67 4 12 6 29 13 37 14 8 1
24 5 35 9 16 6 15 3 -5 -15 -25 -21 -25 -21 -1 -10 16 9 26 9 34 1 16 -16 16
-51 0 -51 -7 0 -13 -5 -13 -11 0 -7 -11 -8 -29 -4 -32 7 -54 -12 -24 -21 10
-3 26 -10 35 -15 10 -5 24 -9 32 -9 8 0 25 -14 37 -31 21 -30 21 -32 4 -41 -9
-6 -25 -18 -35 -28 -16 -16 -17 -23 -7 -49 8 -21 18 -31 32 -30 16 1 17 2 3 6
-26 7 -33 41 -12 64 20 22 43 24 68 6 16 -12 17 -16 5 -35 -8 -12 -21 -22 -29
-23 -11 0 -11 -2 -2 -6 7 -3 19 0 27 7 11 9 14 8 12 -9 0 -11 -5 -17 -9 -15
-13 8 -89 -16 -83 -26 10 -16 -34 -11 -60 6 -31 20 -34 73 -7 97 10 10 21 17
25 17 3 0 18 5 32 10 23 9 25 13 14 26 -22 27 -162 73 -153 50 2 -6 -14 -29
-36 -51 -59 -58 -49 -65 15 -11 58 50 58 50 134 18 32 -13 34 -16 16 -23 -11
-4 -37 -8 -57 -8 -27 -1 -42 -8 -57 -27 -32 -41 -25 -50 11 -15 43 42 51 39
25 -8 l-22 -40 21 -28 c29 -39 81 -51 135 -30 46 18 52 17 44 -4 -9 -23 -68
-56 -112 -63 -37 -7 -44 -4 -79 26 -20 18 -46 46 -57 63 -10 16 -17 22 -14 13
3 -9 1 -19 -6 -22 -8 -3 -6 -5 3 -5 8 -1 25 -17 38 -36 12 -19 27 -35 33 -35
5 0 7 -5 3 -12 -4 -7 -3 -8 4 -4 7 4 12 3 12 -1 0 -5 20 -9 45 -10 35 -2 51 3
75 23 33 28 39 22 14 -14 -13 -19 -24 -22 -81 -22 -58 0 -69 3 -104 31 -50 39
-97 126 -74 135 8 4 15 14 15 24 0 17 -2 17 -23 -2 l-24 -21 28 -57 c15 -31
46 -73 68 -92 41 -35 43 -35 114 -31 55 4 76 10 89 24 15 18 17 18 20 2 3 -15
-3 -32 -29 -81 -1 -2 -19 2 -40 9 -21 8 -55 12 -77 10 -26 -2 -36 1 -32 8 4 6
1 9 -7 6 -13 -6 -87 58 -87 75 0 6 -7 10 -15 10 -8 0 -19 9 -25 21 -9 16 -14
18 -26 8 -11 -9 -17 -9 -28 0 -10 9 -16 9 -21 1 -9 -15 -4 -19 31 -22 16 -1
37 -9 46 -17 15 -15 10 -16 -50 -15 -37 1 -75 5 -84 9 -9 4 -21 4 -26 1 -12
-7 -102 23 -102 35 0 12 46 22 61 13 7 -4 9 -3 5 4 -3 6 -2 13 4 17 5 3 10 -3
10 -14 0 -14 5 -19 15 -15 9 4 15 0 15 -10 0 -24 15 -19 17 5 1 12 -1 19 -4
16 -13 -13 -30 19 -22 40 6 18 5 23 -6 23 -20 0 -19 16 1 24 13 5 15 15 10 48
l-7 42 22 -20 22 -19 -17 26 c-10 16 -15 38 -12 55 2 16 5 33 5 37 1 5 6 5 12
2 6 -4 8 -14 5 -22 -5 -11 -2 -14 11 -9 15 5 15 4 -1 -9 -17 -13 -17 -15 -4
-15 30 0 31 21 2 51 -23 24 -29 27 -37 14 -4 -8 -13 -15 -18 -15 -6 0 -7 5 -4
10 12 19 -15 41 -36 29 -11 -5 -24 -7 -30 -3 -6 3 -13 -4 -16 -16 -5 -19 -11
-21 -64 -17 -32 2 -64 0 -71 -4 -8 -5 8 -9 38 -9 37 0 54 -4 58 -15 3 -9 0
-15 -9 -15 -8 0 -18 -6 -22 -14 -4 -7 -15 -16 -23 -19 -12 -4 -12 -6 2 -6 9
-1 23 6 32 14 20 20 36 19 36 -4 0 -30 -20 -37 -88 -33 -47 3 -65 8 -69 20 -4
10 -10 19 -13 22 -4 3 -10 17 -13 32 -6 22 -3 27 15 31 13 2 4 5 -19 6 -47 1
-54 -11 -28 -45 8 -10 15 -28 15 -40 0 -11 3 -24 7 -28 4 -4 8 -23 8 -44 1
-20 9 -52 18 -71 9 -18 15 -37 12 -41 -8 -14 25 -80 40 -80 8 0 12 -6 10 -12
-3 -7 4 -28 16 -47 18 -31 23 -33 57 -27 81 13 106 -16 71 -83 -25 -49 -20
-60 17 -37 36 25 41 13 12 -31 -59 -90 -62 -98 -59 -179 1 -32 23 -50 44 -37
6 4 0 10 -14 15 -22 9 -23 10 -6 22 21 16 22 26 2 26 -18 0 -20 17 -2 23 9 3
9 7 0 19 -7 8 -10 18 -6 21 11 11 23 8 23 -6 0 -8 14 -33 30 -55 35 -49 37
-62 10 -85 -26 -22 -15 -47 21 -47 37 0 38 -22 2 -48 -25 -18 -28 -52 -4 -52
6 0 8 6 5 14 -3 8 3 19 15 26 12 6 21 20 21 30 0 23 4 24 32 9 16 -9 23 -8 29
2 7 11 9 10 9 -3 0 -9 -9 -19 -19 -23 -30 -9 -47 -33 -33 -47 7 -7 12 -22 12
-34 0 -26 24 -48 45 -40 22 8 18 26 -5 26 -11 0 -20 6 -20 14 0 8 9 18 20 21
22 7 26 20 9 31 -8 5 -6 10 5 16 9 5 16 15 16 23 0 19 -46 49 -65 41 -17 -6
-21 9 -5 19 6 4 10 27 9 51 -2 37 2 49 24 71 14 15 28 25 31 22 2 -2 -1 -23
-7 -46 -13 -49 -7 -59 22 -43 20 10 21 8 21 -37 0 -26 5 -55 10 -63 5 -8 10
-10 10 -4 0 15 38 54 53 54 8 0 9 -3 1 -8 -16 -11 -24 -41 -13 -48 16 -9 51
27 43 45 -3 9 -8 30 -10 46 -4 25 0 32 22 42 36 17 40 10 25 -40 -6 -23 -14
-71 -17 -107 -3 -36 -6 -73 -8 -82 -5 -23 8 -23 29 -1 14 14 18 14 26 2 5 -8
9 -18 9 -22 0 -5 8 -6 18 -3 14 5 22 -1 31 -21 l13 -28 13 33 c15 34 24 39 43
20 17 -17 16 16 -3 51 -9 18 -11 37 -6 52 15 46 35 89 42 89 4 0 23 -18 43
-40 20 -22 39 -40 42 -40 4 0 4 27 2 60 -2 33 -3 60 0 60 2 0 12 -5 24 -11 26
-14 29 -9 19 28 l-9 31 28 -16 c24 -14 27 -21 23 -49 -3 -18 -1 -39 6 -46 8
-11 5 -19 -14 -37 -14 -13 -25 -32 -25 -42 0 -25 44 -68 68 -68 11 0 25 -7 32
-15 11 -13 8 -15 -14 -15 -27 0 -36 -15 -13 -23 9 -3 9 -9 -1 -29 -21 -39 -12
-63 23 -63 25 0 31 5 33 25 2 22 1 23 -8 8 -11 -17 -40 -25 -40 -11 0 22 26
73 37 73 7 0 13 6 13 13 0 24 -26 50 -61 61 -27 9 -34 16 -34 36 0 20 9 28 50
43 52 19 85 43 85 60 0 6 -9 30 -21 54 -15 31 -18 47 -11 56 27 33 31 65 11
90 -23 30 -24 41 -4 33 24 -9 17 17 -16 52 -30 34 -56 38 -27 5 33 -39 31 -42
-22 -36 -43 5 -50 4 -44 -10 3 -9 11 -14 18 -11 7 3 13 -2 13 -10 0 -8 -6 -12
-12 -10 -6 3 -17 -5 -23 -18 -6 -13 -11 -17 -11 -10 -1 7 -6 10 -12 6 -10 -6
-69 42 -69 57 0 4 14 9 31 11 24 4 33 0 40 -16 8 -18 9 -18 6 6 -3 20 1 29 15
34 10 3 26 16 34 30 18 27 52 32 60 10 3 -8 21 -27 40 -41 41 -31 47 -13 11
32 -17 20 -22 35 -17 53 6 23 11 25 64 25 52 0 61 3 82 30 13 17 22 36 19 43
-2 6 1 12 8 12 12 0 43 66 39 83 -1 4 2 16 7 26 9 17 32 124 34 164 1 9 4 17
8 17 3 0 11 12 18 27 15 33 1 44 -44 36 -38 -7 -45 -13 -17 -13 26 0 29 -26 6
-58 -9 -13 -13 -31 -9 -40 4 -12 3 -14 -4 -7 -7 7 -35 8 -73 5 -64 -7 -78 0
-84 38 -3 17 33 15 40 -3 3 -8 12 -15 21 -15 14 0 13 3 -2 19 -10 10 -25 21
-33 25 -8 3 4 4 28 1 25 -3 42 -1 42 5 0 5 -17 11 -37 12 l-38 1 45 7 c43 7
42 8 -19 7 -61 -1 -64 0 -76 30 -14 33 -3 70 14 45 4 -8 17 -12 27 -10 11 2
27 -6 37 -19 24 -30 95 -32 121 -4 17 19 19 19 87 0 72 -20 106 -23 133 -13
23 9 20 24 -4 24 -34 0 -79 28 -95 60 -20 39 -19 48 8 52 17 2 22 9 22 31 -1
22 4 27 22 27 18 0 23 6 23 26 l0 25 30 -21 c23 -16 34 -19 49 -11 20 11 71
68 71 79 0 4 -31 6 -70 4 -60 -3 -68 -6 -56 -18 17 -16 36 -19 36 -4 0 6 9 10
20 10 27 0 25 -14 -4 -28 -18 -8 -28 -7 -44 4 -18 12 -22 11 -46 -21 -14 -18
-34 -34 -44 -34 -100 -4 -132 -9 -162 -27 -40 -23 -48 -45 -25 -67 20 -21 73
-12 97 15 23 26 44 18 43 -16 -2 -29 -15 -49 -15 -21 0 15 -2 16 -16 4 -15
-12 -13 -14 10 -22 14 -5 26 -13 26 -18 0 -5 7 -9 15 -9 8 0 15 -5 15 -11 0
-12 -29 -5 -72 18 -16 7 -28 10 -28 6 0 -5 -16 -9 -36 -11 -35 -2 -36 -1 -31
25 l5 28 -20 -28 c-11 -15 -25 -24 -30 -21 -6 4 -26 8 -45 10 -78 7 -97 34
-88 126 4 47 2 58 -15 73 -14 13 -17 21 -9 26 13 7 3 49 -12 49 -9 0 -13 -20
-11 -52 1 -12 -3 -15 -14 -11 -20 7 -37 -17 -23 -33 7 -8 6 -14 -1 -19 -7 -4
-9 -19 -5 -37 4 -18 2 -40 -5 -53 -11 -20 -16 -22 -31 -12 -23 14 -26 42 -4
33 8 -3 15 -1 15 4 0 15 -38 12 -43 -2 -2 -7 0 -21 5 -31 12 -23 3 -36 -20
-30 -22 5 -19 43 7 83 9 13 15 27 15 30 -1 3 1 11 3 18 8 19 -26 64 -44 58 -8
-3 -26 -9 -39 -12 -13 -3 -21 -10 -18 -15 3 -5 -2 -6 -10 -3 -8 3 -28 -1 -44
-9 -26 -12 -31 -12 -53 4 -16 11 -30 15 -38 9 -20 -11 -6 -40 19 -40 13 0 19
-4 14 -11 -4 -8 1 -9 17 -4 13 5 38 9 56 11 24 2 30 -1 26 -12 -13 -35 -96
-48 -107 -17 -8 21 -26 5 -29 -26 -1 -12 -6 -20 -14 -17 -7 3 -10 -1 -7 -9 6
-13 -52 -33 -63 -21 -3 3 -11 -1 -17 -8 -6 -8 -20 -17 -31 -20 -46 -12 -79 55
-46 95 21 26 51 20 51 -11 0 -16 6 -20 28 -18 21 1 27 7 27 25 0 13 -3 23 -7
23 -5 0 -8 7 -8 15 0 8 7 15 16 15 11 0 15 6 11 20 -3 11 -1 22 4 25 4 3 6 12
3 20 -4 8 1 17 9 21 9 3 13 12 11 19 -6 16 12 29 26 20 7 -4 1 -16 -15 -30
-14 -13 -25 -25 -25 -27 0 -2 14 -4 32 -5 18 -2 43 -14 60 -30 l28 -27 0 25
c0 25 -72 109 -93 109 -19 -1 -44 -24 -40 -37 2 -6 -1 -14 -7 -18 -7 -4 -10
-1 -9 6 5 31 -23 100 -47 116 -22 14 -32 14 -78 4 -85 -19 -121 -58 -82 -90
12 -10 15 -8 18 11 4 33 40 35 74 3 22 -20 35 -25 56 -21 21 4 30 1 39 -15 6
-11 8 -23 5 -27 -3 -3 -6 1 -6 9 -1 22 -29 -34 -30 -58 0 -27 -26 -22 -52 11
-16 20 -88 32 -88 14 0 -5 -5 -6 -10 -3 -6 4 -8 11 -5 16 4 5 -1 9 -10 9 -13
0 -35 -36 -35 -58 0 -12 60 -72 72 -72 7 0 6 5 -1 14 -7 8 -14 29 -16 46 -4
29 -3 31 13 19 9 -7 19 -15 21 -16 3 -2 6 -20 7 -41 1 -20 4 -43 5 -51 2 -7
-2 -16 -8 -18 -8 -3 -13 4 -13 15 0 11 -7 22 -15 25 -10 5 -16 -4 -21 -28 -6
-32 -9 -34 -33 -29 -14 4 -29 9 -33 11 -12 6 -9 38 4 51 15 15 38 16 38 2 0
-5 -8 -10 -17 -10 -12 0 -14 -3 -7 -10 11 -11 44 -4 44 9 0 4 -6 16 -14 26
-12 16 -19 18 -43 9 -17 -6 -27 -17 -27 -27 1 -13 -2 -14 -18 -6 -13 7 -17 16
-13 30 4 11 2 19 -4 19 -6 0 -11 5 -11 10 0 14 61 40 75 33 5 -3 5 0 -1 6 -9
10 -18 9 -43 -3 -27 -14 -32 -15 -37 -2 -3 8 -12 17 -21 20 -22 9 -63 -4 -63
-20 0 -29 55 -154 66 -150 7 3 9 -5 6 -19 -5 -27 -32 -23 -32 4 -1 20 -50 101
-50 82 0 -8 -3 -12 -6 -9 -3 4 0 16 6 28 8 15 8 20 1 16 -6 -4 -19 -2 -30 4
-12 6 -29 7 -43 2 -15 -6 -32 -4 -48 5 -14 7 -21 13 -16 13 5 0 3 7 -4 15 -7
9 -21 13 -30 10 -14 -5 -26 11 -59 75 -23 45 -41 86 -41 91 0 17 49 34 62 21
14 -14 28 -16 28 -4 0 17 -50 33 -70 22 -16 -8 -19 -6 -25 18 -3 15 -1 59 4
97 9 63 14 74 50 107 50 48 36 66 -28 35z m-45 -139 c-2 -24 -4 -46 -5 -50 -1
-4 -17 -14 -36 -23 -19 -10 -37 -26 -40 -36 -6 -17 -9 -18 -22 -7 -16 13 -36
58 -29 65 2 2 13 -1 25 -8 34 -22 74 -1 79 41 3 30 17 60 28 60 2 0 2 -19 0
-42z m-9 -115 c4 -10 -2 -23 -16 -34 -18 -15 -20 -22 -12 -38 7 -13 8 -22 1
-26 -5 -3 -11 2 -11 12 -1 10 -3 31 -5 48 -5 45 29 75 43 38z m33 -120 c0 -18
13 -40 37 -65 26 -27 32 -38 21 -38 -28 0 -65 18 -87 41 -17 18 -18 25 -8 43
6 12 12 24 13 29 1 4 2 9 3 12 0 3 6 5 11 5 6 0 10 -12 10 -27z m-42 -7 c-39
-29 -16 -70 56 -100 21 -9 49 -13 62 -10 25 6 33 -9 12 -22 -7 -5 -5 -11 7
-21 25 -17 45 -17 45 2 0 23 19 18 30 -7 7 -18 9 -19 9 -5 1 9 8 17 16 17 9 0
18 -8 21 -17 3 -10 10 -26 15 -35 7 -14 5 -18 -6 -18 -18 0 -19 -12 -4 -27 16
-16 3 -32 -21 -26 -20 5 -25 19 -21 60 1 17 -3 20 -19 16 -20 -5 -20 -7 -4
-30 15 -24 15 -25 -8 -19 -12 3 -17 3 -10 0 7 -3 17 -15 23 -27 9 -18 9 -20
-1 -10 -7 6 -18 9 -26 6 -9 -3 -12 3 -9 24 2 15 -3 39 -10 53 -8 14 -14 22
-15 18 0 -4 -14 7 -32 24 -30 29 -32 30 -46 12 -13 -16 -14 -17 -9 -2 4 12 -1
22 -15 29 -18 10 -20 9 -15 -5 9 -24 -6 -19 -33 9 -13 14 -30 23 -36 21 -7 -3
-18 1 -24 9 -9 11 -7 18 9 32 12 9 21 23 21 30 0 6 8 17 18 22 25 15 40 13 20
-3z m1040 -107 c-10 -5 -18 -17 -18 -24 0 -9 -10 -15 -25 -15 -14 0 -25 4 -25
9 0 19 32 41 58 41 23 -1 25 -2 10 -11z m-388 -9 c0 -6 -7 -22 -17 -36 -11
-18 -18 -22 -24 -13 -4 7 0 23 8 36 16 24 33 31 33 13z m-260 -18 c0 -11 11
-32 25 -48 17 -20 25 -41 25 -66 0 -37 -19 -55 -21 -20 -1 9 -2 26 -3 37 0 11
-7 19 -14 17 -8 -1 -11 2 -7 8 3 5 0 10 -8 10 -15 0 -25 33 -19 63 5 23 22 22
22 -1z m335 -3 c7 -22 -5 -43 -12 -21 -3 7 -11 19 -20 27 -13 13 -12 15 6 15
11 0 22 -9 26 -21z m475 -14 c0 -8 -8 -19 -17 -24 -17 -10 -16 -10 2 -11 17 0
18 -2 5 -11 -12 -9 -13 -12 -1 -16 11 -5 11 -7 0 -14 -11 -7 -10 -9 3 -9 9 0
20 -5 24 -12 5 -8 2 -9 -9 -5 -12 4 -17 1 -17 -9 0 -11 6 -14 16 -10 8 3 12 2
9 -4 -3 -5 -20 -14 -38 -19 l-32 -9 39 -1 c22 -1 36 -4 33 -8 -4 -3 0 -15 10
-25 9 -10 14 -20 12 -21 -2 -2 -18 -13 -36 -25 -17 -13 -34 -32 -36 -45 -3
-14 -4 -12 -3 7 1 16 -4 31 -10 33 -6 2 -9 -20 -8 -64 3 -90 3 -87 10 -80 7 6
66 -22 98 -48 13 -10 17 -18 10 -25 -6 -6 -23 -1 -47 16 -21 14 -42 22 -47 19
-6 -3 -7 1 -4 9 3 9 2 16 -4 16 -5 0 -13 -7 -16 -16 -3 -8 -10 -12 -16 -9 -5
3 -10 1 -10 -4 0 -6 7 -11 15 -11 8 0 15 -7 15 -16 0 -8 -4 -13 -9 -9 -5 3
-13 0 -17 -6 -4 -8 -3 -9 4 -5 7 4 12 3 12 -3 0 -5 -4 -13 -10 -16 -5 -3 -10
-18 -10 -33 1 -26 1 -26 16 -7 9 13 11 21 4 23 -15 5 8 32 27 32 11 0 11 4 3
20 -8 14 -8 20 0 20 6 0 13 -6 16 -14 3 -8 13 -12 23 -9 9 2 23 -2 30 -11 11
-13 6 -17 -30 -27 -24 -8 -44 -20 -47 -31 -5 -21 -44 -36 -50 -19 -2 6 -10 11
-18 11 -8 0 -14 4 -14 9 0 5 -25 9 -55 8 -47 -2 -53 0 -38 11 9 6 20 12 24 12
3 0 4 11 1 25 -3 17 0 25 10 25 10 0 13 8 11 28 -4 21 3 34 28 57 18 17 29 25
26 19 -11 -19 -16 -64 -7 -64 21 0 3 -40 -22 -51 -34 -14 -37 -32 -5 -27 12 2
21 9 20 15 -1 6 6 9 16 6 15 -4 17 0 13 25 -2 16 1 33 8 37 8 5 8 10 0 20 -15
18 -24 75 -12 75 6 0 8 9 5 21 -4 12 0 25 8 30 10 6 10 9 2 9 -7 0 -13 5 -13
11 0 5 5 7 12 3 6 -4 8 -3 5 3 -4 6 0 17 9 24 14 11 18 11 28 -3 11 -15 14
-15 36 3 14 10 21 19 15 20 -5 1 -17 3 -25 4 -31 3 -79 27 -84 41 -6 17 -1 18
26 3 16 -9 19 -8 12 3 -11 17 -6 46 13 75 8 13 12 23 9 23 -4 0 1 14 9 30 16
30 35 33 35 5z m229 -22 c-12 -15 -12 -16 5 -9 19 7 19 6 1 -14 -22 -24 -34
-25 -42 -5 -3 9 2 22 13 30 26 20 39 19 23 -2z m-1339 -18 c0 -9 11 -21 25
-27 48 -22 26 -70 -31 -70 -21 0 -52 -7 -67 -15 -16 -8 -30 -13 -32 -11 -2 2
12 20 31 41 30 32 37 36 55 26 32 -17 35 -2 6 24 -21 18 -25 25 -15 35 16 16
28 15 28 -3z m783 8 c4 -3 41 -5 84 -4 66 2 75 0 65 -12 -7 -8 -10 -22 -6 -31
7 -18 -11 -22 -22 -5 -3 6 -17 9 -30 6 -21 -4 -28 3 -26 24 1 10 -43 5 -50 -6
-14 -19 -9 -75 6 -75 12 0 13 7 5 32 -11 40 -11 38 1 38 6 0 10 -7 10 -15 0
-21 30 -31 41 -14 7 10 11 11 17 2 10 -16 62 -35 62 -23 0 6 6 10 13 10 16 0
42 -39 43 -65 1 -11 3 -27 5 -35 2 -8 -2 -14 -9 -12 -10 2 -10 -2 -2 -17 13
-25 13 -71 0 -71 -5 0 -10 -5 -10 -11 0 -6 -13 -27 -30 -46 -35 -40 -38 -33
-9 22 12 22 23 58 24 80 1 22 0 35 -2 29 -2 -8 -24 -1 -58 18 -30 16 -55 25
-55 19 0 -15 -37 -51 -52 -51 -8 0 -5 7 6 15 19 14 19 15 -5 15 -35 0 -48 17
-40 49 9 32 0 92 -14 92 -11 1 -8 18 7 36 12 14 21 16 31 6z m-541 -27 c6 -11
6 -22 -2 -31 -8 -10 -8 -14 2 -18 10 -3 10 -7 1 -17 -9 -10 -15 -10 -27 2 -16
16 -17 49 -1 60 6 5 5 8 -2 8 -7 0 -13 4 -13 9 0 15 32 6 42 -13z m1156 12
c-3 -7 -15 -15 -28 -16 -21 -3 -22 -2 -11 12 16 19 44 21 39 4z m-364 -124
c13 -5 14 -9 5 -20 -16 -20 -29 -17 -29 6 0 22 1 23 24 14z m-733 -36 c22 -12
39 -28 39 -35 0 -18 -5 -17 -50 10 -22 12 -40 28 -40 35 0 17 6 15 51 -10z
m599 -23 c13 -2 43 -24 33 -25 -7 0 -13 -7 -13 -15 0 -9 6 -12 16 -8 13 5 15
2 9 -18 -4 -13 -12 -25 -16 -27 -5 -2 -9 -12 -9 -23 0 -10 -4 -19 -10 -19 -5
0 -10 4 -10 9 0 5 -8 12 -17 15 -15 6 -14 4 2 -14 10 -11 20 -28 21 -38 2 -9
4 -24 5 -32 7 -50 -28 -90 -80 -90 -24 0 -25 3 -10 32 11 21 12 21 26 2 13
-18 14 -18 11 1 -2 11 -6 25 -9 30 -8 13 -3 70 6 86 5 8 4 10 -3 5 -16 -10
-15 3 2 37 15 27 14 27 -15 27 -22 0 -29 5 -29 19 0 13 8 21 23 23 17 2 21 9
19 26 -3 22 -2 23 20 11 13 -7 25 -14 28 -14z m-570 -44 c0 -4 -19 -16 -42
-28 l-43 -20 38 -16 c36 -15 50 -37 25 -37 -21 1 -98 38 -98 48 0 22 85 73
107 65 7 -3 13 -8 13 -12z m821 -13 c53 -29 50 -50 -8 -71 -58 -21 -60 -21
-60 -2 0 8 13 17 29 20 40 9 42 21 8 35 -17 7 -30 19 -30 26 0 20 16 17 61 -8z
m-942 -75 c8 -7 11 -37 5 -56 -5 -15 -15 -17 -66 -15 l-61 3 -19 43 -18 44 78
-7 c42 -4 79 -9 81 -12z m1128 -25 c-11 -24 -20 -47 -19 -51 1 -5 -3 -5 -10 0
-7 4 -33 6 -58 5 -37 -2 -47 1 -58 18 -12 20 -11 20 30 14 25 -4 40 -3 35 2
-9 9 -14 11 -48 13 -12 0 -19 6 -17 14 5 14 41 22 115 25 l52 3 -22 -43z
m-1016 -20 c6 -13 8 -20 4 -16 -4 4 -27 -4 -50 -18 -47 -27 -68 -19 -32 13 18
17 56 41 64 43 1 0 8 -10 14 -22z m-89 -108 c10 -48 5 -57 -35 -62 -32 -3 -37
0 -66 44 -18 26 -36 48 -41 48 -6 0 -10 3 -10 8 0 4 32 5 72 2 l72 -5 8 -35z
m1070 19 c-17 -17 -36 -42 -43 -57 -10 -24 -16 -27 -51 -23 -39 3 -40 4 -34
33 3 17 6 39 6 49 0 16 10 19 73 22 39 1 74 4 76 5 3 1 -9 -12 -27 -29z m-961
-24 c5 4 9 0 9 -8 0 -7 -12 -20 -26 -28 -23 -12 -27 -12 -40 6 -13 18 -14 18
-15 -6 l-1 -24 -8 25 c-15 46 -13 49 31 39 22 -5 44 -7 50 -4z m805 -41 c-7
-17 -27 -19 -22 -1 1 6 1 9 -1 5 -10 -17 -43 -8 -43 12 0 18 12 24 48 23 6 -1
13 4 13 11 1 6 4 1 6 -12 3 -13 2 -30 -1 -38z m-610 7 c17 -10 36 -33 44 -50
11 -27 10 -37 -4 -69 -21 -46 -44 -62 -95 -64 -48 -2 -103 29 -115 64 -14 40
8 104 42 122 37 21 91 19 128 -3z m470 -15 c26 -26 34 -42 34 -70 0 -105 -155
-145 -210 -54 -30 49 -27 102 8 126 36 26 50 30 96 31 31 1 45 -6 72 -33z
m-652 -11 c3 -9 -5 -20 -22 -29 -26 -14 -26 -15 -4 -16 24 0 32 -30 8 -30 -8
0 -21 7 -30 15 -8 8 -21 15 -29 15 -31 0 -25 15 15 36 54 27 55 27 62 9z m734
1 c15 -8 36 -17 47 -21 19 -6 19 -7 2 -16 -25 -14 -87 9 -87 33 0 22 4 22 38
4z m-344 -50 c40 -17 76 -72 76 -116 0 -24 -9 -41 -36 -66 -35 -34 -52 -39
-109 -35 -55 5 -105 75 -96 136 2 11 12 33 23 48 33 47 82 58 142 33z m360 -5
c3 -5 -1 -12 -10 -15 -27 -10 -44 -7 -44 9 0 16 45 21 54 6z m-733 -78 c14
-16 33 -32 42 -38 14 -8 15 -16 8 -40 l-9 -30 -1 28 c-1 27 -1 28 -52 21 -49
-7 -51 -6 -40 13 8 17 6 24 -10 39 -15 13 -16 19 -7 26 23 14 43 9 69 -19z
m520 -85 c20 -52 11 -71 -18 -35 -18 23 -18 23 -19 -45 0 -37 -3 -70 -6 -73
-11 -11 -55 17 -73 47 l-18 31 44 41 c32 30 43 47 41 64 -6 43 29 21 49 -30z
m-400 -2 c-12 -13 -20 -33 -19 -46 2 -12 -3 -25 -9 -27 -8 -3 -13 3 -13 14 0
11 -5 24 -11 30 -7 7 -9 23 -5 37 5 19 13 25 39 28 40 4 45 -7 18 -36z m70 23
c9 -17 7 -26 -8 -47 -27 -36 -43 -39 -43 -8 0 32 17 76 29 76 6 0 15 -10 22
-21z m-241 -53 c-12 -33 -9 -66 8 -66 7 0 11 -4 8 -9 -4 -5 0 -12 6 -14 9 -4
9 -6 1 -6 -19 -1 -53 49 -53 79 0 30 7 40 26 40 10 0 11 -6 4 -24z m610 14 c0
-5 12 -16 28 -24 19 -11 22 -15 10 -16 -10 0 -18 -4 -18 -10 0 -11 -30 -14
-31 -2 0 4 -3 19 -5 35 -3 15 0 27 6 27 5 0 10 -4 10 -10z m-526 -32 c9 -43
-12 -66 -43 -46 -25 16 -28 53 -3 67 29 17 39 12 46 -21z m237 -18 c5 0 9 -7
9 -16 0 -17 -61 -84 -76 -84 -10 0 -17 126 -8 141 3 5 19 -2 36 -16 16 -14 34
-25 39 -25z m463 42 c7 -11 -4 -52 -14 -52 -10 0 -21 41 -14 52 3 4 9 8 14 8
5 0 11 -4 14 -8z m-59 -26 c19 -18 25 -31 20 -45 -8 -25 -18 -26 -36 -5 -12
15 -23 74 -13 74 1 0 15 -11 29 -24z m-497 -34 c0 -22 2 -44 5 -49 4 -6 -5
-14 -21 -17 -15 -4 -35 -9 -45 -12 -18 -6 -18 -4 -2 26 9 18 12 29 6 26 -7 -5
-7 2 0 23 7 18 16 28 24 25 7 -3 16 -1 20 5 11 19 15 12 13 -27z m357 10 c-7
-7 15 -43 23 -38 4 2 8 -3 8 -12 1 -9 3 -24 6 -32 3 -8 3 -12 1 -9 -2 3 -16 4
-31 2 -41 -5 -51 7 -45 54 4 32 10 41 24 40 10 -1 16 -3 14 -5z m-150 -33 c7
-32 -17 -97 -40 -105 -20 -8 -42 20 -51 63 -10 52 0 68 46 68 35 1 40 -2 45
-26z m245 16 c7 -8 11 -16 9 -16 -27 -8 -59 -5 -59 5 0 28 30 35 50 11z m-588
-18 c-12 -13 -22 -29 -22 -35 0 -7 -4 -12 -8 -12 -5 0 -14 -10 -20 -22 l-11
-23 0 23 c-1 30 16 62 33 62 8 0 19 7 26 15 7 8 15 15 18 15 3 0 -4 -10 -16
-23z m639 -22 c24 -10 28 -14 14 -14 -30 -1 -65 10 -65 20 0 13 13 11 51 -6z
m-235 -39 c15 4 24 2 24 -6 0 -6 -4 -8 -10 -5 -5 3 -10 -2 -10 -12 0 -10 -7
-27 -15 -37 -14 -18 -15 -18 -25 8 -5 15 -10 42 -9 59 0 30 1 31 11 10 8 -17
17 -21 34 -17z m-236 -27 c0 -10 -9 -23 -20 -29 -17 -9 -20 -7 -26 14 -3 14
-3 29 0 34 10 16 46 1 46 -19z m300 11 c17 -10 14 -15 -17 -24 -18 -6 -20 -4
-16 14 6 22 11 24 33 10z m204 -13 c13 -20 2 -32 -34 -41 -14 -3 -20 -3 -13 0
7 3 9 12 6 20 -7 20 5 46 19 42 6 -2 16 -12 22 -21z m-390 -40 c10 -4 13 -13
10 -24 -3 -10 3 -3 15 15 11 17 26 32 31 32 6 0 8 6 4 13 -5 9 -4 9 5 1 17
-15 -5 -127 -30 -157 l-18 -22 -20 20 c-13 13 -24 44 -30 84 -10 64 -4 102 10
64 4 -11 14 -23 23 -26z"/>
<path d="M1411 1698 c-21 -20 -23 -21 -17 -4 5 16 4 17 -9 6 -18 -15 -19 -26
-2 -33 7 -3 25 8 40 24 31 34 22 39 -12 7z"/>
<path d="M1467 1698 c13 -22 14 -51 1 -61 -9 -6 -8 -7 4 -3 10 3 20 1 23 -5 4
-5 11 -6 17 -3 7 4 5 10 -5 16 -13 7 -14 14 -7 34 6 15 6 23 1 19 -5 -3 -12
-1 -16 5 -3 5 -11 10 -16 10 -6 0 -7 -6 -2 -12z"/>
<path d="M1336 1663 c1 -16 3 -29 3 -31 1 -1 11 2 23 9 19 10 20 12 4 21 -9 5
-14 13 -11 19 4 5 0 9 -7 9 -9 0 -13 -10 -12 -27z"/>
<path d="M694 1438 c-3 -4 8 -8 25 -8 16 0 32 4 36 9 3 5 -8 9 -25 9 -17 -1
-33 -5 -36 -10z"/>
<path d="M1024 1270 c35 -11 62 -35 69 -61 5 -19 -43 -69 -66 -69 -12 1 22 33
46 44 9 4 9 7 1 11 -7 3 -10 14 -7 25 9 35 -57 49 -79 16 -13 -18 -8 -32 5
-16 14 17 53 27 42 11 -4 -7 1 -8 12 -4 15 6 16 4 5 -9 -10 -13 -10 -17 0 -21
7 -2 10 -8 5 -12 -4 -5 -13 -3 -19 3 -15 15 -58 16 -58 2 0 -5 -5 -10 -11 -10
-7 0 -10 12 -7 30 3 17 1 30 -4 30 -4 0 -8 -15 -8 -34 0 -37 36 -76 71 -76 29
0 66 21 78 44 24 43 -24 107 -79 105 -25 -1 -24 -1 4 -9z"/>
<path d="M1407 1252 c-64 -71 51 -165 118 -97 31 30 32 68 3 95 -38 35 -46 22
-36 -57 1 -13 6 -23 10 -23 5 0 5 19 2 43 l-7 42 22 -19 c27 -24 27 -40 0 -67
-17 -17 -23 -19 -31 -8 -7 11 -11 11 -15 2 -7 -19 -31 -16 -29 4 0 10 -8 19
-19 21 -18 4 -18 3 -5 -14 14 -18 14 -18 -2 -5 -10 7 -18 23 -18 35 1 22 22
56 35 56 5 0 1 -8 -8 -18 -15 -16 -15 -19 3 -30 11 -7 20 -8 20 -3 0 6 -5 13
-10 16 -6 4 -8 11 -4 16 3 6 12 3 19 -8 13 -17 14 -17 12 5 -1 12 -4 22 -8 22
-4 0 -14 2 -21 5 -8 3 -22 -3 -31 -13z"/>
<path d="M1198 1185 c-57 -32 -55 -120 3 -150 43 -23 77 -18 110 14 28 28 41
81 19 81 -5 0 -7 6 -4 14 13 35 -84 66 -128 41z m100 -17 c14 -14 16 -32 3
-23 -6 3 -19 -5 -30 -17 l-21 -22 2 26 c2 20 7 24 23 21 16 -4 17 -3 5 6 -8 6
-26 10 -40 10 -14 0 -19 -3 -12 -6 6 -2 12 -14 12 -26 l-1 -22 -19 23 c-13 16
-21 19 -26 11 -4 -7 4 -22 19 -35 18 -15 26 -31 25 -48 -3 -33 -12 -33 -45 0
-19 19 -23 28 -14 37 6 6 11 16 11 22 0 5 -4 4 -9 -4 -5 -8 -11 -9 -15 -3 -3
5 5 21 19 36 18 19 34 26 63 26 21 0 43 -5 50 -12z m22 -61 c0 -13 -9 -34 -20
-47 -12 -14 -20 -18 -20 -10 0 9 -5 7 -14 -6 -14 -18 -15 -17 -14 16 2 53 68
99 68 47z"/>
<path d="M1923 2363 c-19 -7 -16 -23 3 -23 21 0 84 -66 84 -89 0 -13 -7 -16
-33 -13 -40 5 -70 -19 -65 -52 3 -24 41 -34 64 -16 20 17 18 29 -5 23 -22 -6
-39 16 -21 27 7 4 24 5 38 1 19 -5 26 -14 26 -34 1 -14 -4 -29 -11 -31 -16 -7
-17 -43 -2 -48 15 -5 -7 -78 -25 -83 -6 -2 -23 -6 -38 -9 -38 -9 -47 -44 -18
-68 17 -14 25 -16 30 -7 6 8 13 8 26 0 17 -9 17 -10 2 -11 -21 0 -35 -20 -14
-20 8 0 23 8 33 19 10 10 28 22 41 25 30 10 29 -13 -3 -48 -17 -19 -20 -26 -9
-26 19 0 64 44 64 63 0 7 11 23 25 35 29 26 31 35 9 57 -15 14 -12 19 28 54
41 37 43 41 43 95 -1 71 -17 90 -31 36 -8 -26 -8 -37 -1 -33 7 4 8 -1 3 -13
-5 -10 -9 -25 -9 -32 0 -8 -18 -28 -39 -45 -21 -16 -36 -32 -33 -35 2 -3 0
-13 -6 -23 -7 -13 -21 -19 -46 -19 -29 0 -34 3 -25 12 7 7 12 19 12 28 0 8 12
24 26 35 91 72 93 74 84 105 -14 50 -24 58 -30 26 -8 -44 -30 -45 -30 -2 0 91
-80 167 -147 139z m132 -153 c7 -32 -1 -54 -16 -45 -12 8 -12 75 0 75 5 0 12
-13 16 -30z m-22 -211 c-6 -6 -9 -18 -6 -27 4 -10 1 -13 -8 -10 -21 7 -23 36
-2 41 10 3 20 5 23 6 2 0 -1 -4 -7 -10z"/>
<path d="M811 1984 c-25 -32 -27 -47 -5 -42 17 3 49 68 34 68 -5 0 -18 -12
-29 -26z"/>
<path d="M1559 1928 c-4 -10 -7 -58 -3 -58 14 0 30 27 26 42 -4 15 -19 25 -23
16z"/>
<path d="M1911 1907 c-11 -13 -18 -27 -14 -32 5 -4 3 -5 -4 -1 -7 4 -23 0 -36
-9 -24 -15 -25 -15 -30 14 -7 33 -40 50 -61 32 -8 -6 -16 -25 -20 -42 -5 -26
-8 -29 -25 -19 -26 14 -31 13 -25 -5 4 -8 15 -15 25 -15 15 0 19 -7 19 -32 1
-35 19 -68 39 -68 16 0 14 20 -4 26 -8 4 -15 17 -15 31 0 21 3 23 14 14 10 -8
16 -9 21 -1 3 5 1 10 -6 10 -7 0 -10 3 -6 6 3 3 11 3 17 -1 8 -5 7 -12 -3 -23
-13 -15 -12 -19 6 -37 l20 -20 -12 22 c-7 14 -8 24 -1 28 5 3 10 17 10 31 0
13 3 25 8 25 4 1 16 3 28 4 12 1 39 13 62 26 35 21 38 27 28 42 -12 15 -14 15
-35 -6z m-101 -57 c0 -5 -4 -12 -10 -15 -5 -3 -10 -2 -10 4 0 6 -7 8 -15 5 -8
-4 -15 -2 -15 4 0 6 6 12 13 15 15 5 37 -2 37 -13z"/>
<path d="M1137 1812 c-10 -15 17 -62 36 -62 7 1 6 5 -5 13 -9 7 -18 24 -20 37
-2 18 -5 21 -11 12z"/>
<path d="M1140 1690 c0 -5 -9 -10 -20 -10 -11 0 -20 -4 -20 -9 0 -5 -7 -17
-16 -26 -10 -9 -17 -30 -16 -46 1 -44 -14 -35 -27 15 -16 65 -57 98 -69 55 -3
-11 -1 -11 5 -1 12 17 48 -21 37 -39 -4 -8 -3 -10 4 -5 7 4 12 3 12 -3 0 -6
-9 -15 -20 -21 -11 -6 -18 -15 -15 -19 2 -5 -2 -14 -10 -21 -8 -7 -15 -21 -15
-31 0 -10 -4 -21 -10 -24 -5 -3 -10 -24 -10 -46 0 -26 4 -38 11 -33 6 3 8 17
5 30 -4 13 -2 24 3 24 4 0 9 10 9 23 0 28 41 99 53 91 12 -7 11 -41 -1 -49 -5
-3 -10 -16 -11 -28 -1 -21 -2 -20 -9 3 -9 24 -9 24 -7 -5 2 -23 7 -31 25 -33
21 -3 22 -1 14 15 -8 14 -5 23 17 43 16 14 31 37 35 53 8 35 43 70 62 63 17
-6 54 10 54 23 0 5 -11 6 -25 3 -15 -2 -25 0 -25 7 0 6 -4 11 -10 11 -5 0 -10
-4 -10 -10z"/>
<path d="M2121 1561 c-11 -7 -9 -11 8 -21 23 -12 51 0 51 21 0 12 -41 11 -59
0z"/>
<path d="M2025 1550 c-7 -12 11 -40 26 -40 14 0 10 26 -5 39 -10 9 -16 9 -21
1z"/>
<path d="M386 1352 c-6 -10 21 -52 32 -52 4 0 14 4 21 9 12 8 11 13 -10 30
-27 23 -35 25 -43 13z"/>
<path d="M2100 1345 c-7 -8 -19 -15 -26 -15 -21 0 -17 -18 6 -25 25 -8 50 10
50 36 0 23 -13 24 -30 4z"/>
<path d="M1659 738 c-1 -5 -2 -13 -3 -18 0 -6 -8 -15 -16 -20 -12 -8 -11 -10
7 -10 28 0 37 15 24 37 -6 10 -11 15 -12 11z"/>
<path d="M1390 606 c0 -20 35 -47 54 -40 24 9 20 19 -19 37 -27 13 -35 14 -35
3z"/>
<path d="M1110 569 c-14 -17 -45 -41 -70 -54 -39 -21 -42 -24 -20 -25 107 -6
113 -3 125 58 9 48 -6 57 -35 21z"/>
<path d="M1380 521 c0 -24 28 -41 67 -41 27 1 27 1 8 16 -11 9 -32 22 -47 30
-26 14 -28 13 -28 -5z"/>
<path d="M1111 449 c-19 -8 -21 -12 -11 -24 17 -21 37 -19 50 4 18 34 8 39
-39 20z"/>
<path d="M1160 325 c0 -25 14 -34 24 -16 8 12 -3 41 -15 41 -5 0 -9 -11 -9
-25z"/>
</g>
</svg>
